# xmcd
#
# Track frame offsets:
#	185
#	2113
#	17407
#	31648
#	49203
#	70675
#	86206
#	101706
#	121802
#	144859
#	149952
#	167247
#	189016
#	196285
#	215305
#	230024
#	260020
#
# Disc length: 3752 seconds
#
# Revision: 1
# Processed by: cddbd v1.5.2PL0 Copyright (c) Steve Scherf et al.
# Submitted via: audiograbber 1.83.01
#
DISCID=ea0ea611
DTITLE=A.geh Wirklich? - Freunderlwirtschaft
DYEAR=1900
DGENRE=HipHop
TTITLE0=Intro skit
TTITLE1=Intro
TTITLE2=Heast mi feat. Bouchner, Adem Delon, W. Necas
TTITLE3=Süchtig feat. Kontravers
TTITLE4=Puppal feat. Funke
TTITLE5=Summer Sun feat. Jamin, Adem Delon, BombamanMC
TTITLE6=Hasn im Glück feat. Liba
TTITLE7=Hip Hop und I feat. DJ Supafly, DaBeRtL
TTITLE8=Unsare Leut (oldschoolleckn) feat. Marlon Brandau, FuchsMC, Joe Dugz, L
TTITLE8=iba
TTITLE9=Mr. Producer skit
TTITLE10=Mr. Producer
TTITLE11=Haftlmoach feat. SchokoMC, Dauawizzy, Bonz
TTITLE12=Gansgtarap skit
TTITLE13=Loch ned so .....  feat.  StvdB
TTITLE14=Newsflash feat. AML
TTITLE15=FDW feat. Kontravers, IC, Faun, Bonz, BombamanMC, MicMyerz, FuchsMC, A
TTITLE15=dem Delon, JunkMC, Steez
TTITLE16=Babylon System bye Max"the Duke" Zemo  feat. Funky Colleti, Ageh Wirkl
TTITLE16=ich?!
EXTD=Österreich
EXTT0=
EXTT1=
EXTT2=
EXTT3=
EXTT4=
EXTT5=
EXTT6=
EXTT7=
EXTT8=
EXTT9=
EXTT10=
EXTT11=
EXTT12=
EXTT13=
EXTT14=
EXTT15=
EXTT16=
PLAYORDER=
